Coordinates
version=1
nRows=24
nColumns=24
inDegrees=yes

Units are S.I. units (second, meters, Newtons, ...)
Angles are in degrees.

endheader
time	pelvis_tilt	pelvis_list	pelvis_rotation	pelvis_tx	pelvis_ty	pelvis_tz	hip_flexion_r	hip_adduction_r	hip_rotation_r	knee_angle_r	ankle_angle_r	subtalar_angle_r	mtp_angle_r	hip_flexion_l	hip_adduction_l	hip_rotation_l	knee_angle_l	ankle_angle_l	subtalar_angle_l	mtp_angle_l	lumbar_extension	lumbar_bending	lumbar_rotation
      0.47900000	     -5.64329829	      4.52872438	     -2.04701605	     -0.80089307	      1.00037361	      0.30054540	     25.72533649	     -2.71081763	     -1.05438128	     -2.51962416	      2.18356565	     -4.27576536	      1.12309010	     -6.57368143	      9.43084091	      9.90643081	     -8.77777616	      7.70491380	    -12.10320942	      0.25337835	     -7.25544685	      3.26216174	     -5.80287190
      0.48316667	     -5.64274014	      4.51939935	     -2.04880777	     -0.79526578	      0.99975312	      0.30095991	     25.61068599	     -2.62810890	     -0.83503736	     -2.37425155	      1.82638972	     -4.24267366	      6.40434820	     -6.75463895	      9.40397674	      9.74054557	     -9.11847026	      7.83511701	    -11.71314156	      0.99994007	     -7.23447710	      3.26425937	     -5.79356396
      0.48733333	     -5.69194976	      4.51170144	     -2.09535162	     -0.78962265	      0.99905635	      0.30140085	     25.58954837	     -2.52803551	     -0.54077408	     -2.39364946	      1.62629738	     -4.12083850	      6.40887325	     -6.89964115	      9.39454280	      9.67300935	     -9.41897159	      7.81751604	    -11.68195788	      1.00664893	     -7.15011694	      3.27761516	     -5.76630215
      0.49150000	     -5.73304208	      4.45678217	     -2.15914714	     -0.78393127	      0.99839976	      0.30193469	     25.53149030	     -2.36553753	     -0.12971476	     -2.43157520	      1.27846769	     -4.32429653	      6.43813675	     -7.00818557	      9.32364518	      9.39237661	     -9.81049303	      7.91024432	    -11.25160373	      1.07795312	     -7.07940758	      3.33232670	     -5.51704568
      0.49566667	     -5.76006224	      4.40614582	     -2.21754198	     -0.77826395	      0.99776994	      0.30243716	     25.49426578	     -2.21585514	      0.23226679	     -2.60618726	      0.95052332	     -4.48246294	      6.48871096	     -7.11543043	      9.26682179	      9.17293456	    -10.23888302	      7.99207622	    -10.97789426	      1.20370591	     -7.03320755	      3.37868294	     -5.36212236
      0.49983333	     -5.77886245	      4.32708392	     -2.29530922	     -0.77253779	      0.99718275	      0.30297351	     25.44588809	     -2.03098774	      0.62709750	     -2.84107437	      0.58803632	     -4.68415681	      6.54697112	     -7.23253504	      9.18236339	      8.94684324	    -10.66303896	      8.01870694	    -10.71827116	      1.36358033	     -6.99203032	      3.45804402	     -5.19110805
      0.50400000	     -5.78340546	      4.25119446	     -2.37459419	     -0.76680652	      0.99663564	      0.30350138	     25.39865650	     -1.85108993	      1.01606131	     -3.15930203	      0.19256023	     -4.97969207	      6.62311032	     -7.33262117	      9.10614120	      8.69260810	    -11.15222784	      8.03866596	    -10.45875715	      1.59415049	     -6.95646899	      3.54421600	     -5.00682547
      0.50816667	     -5.81392565	      4.16243452	     -2.46560527	     -0.76105514	      0.99605802	      0.30405175	     25.39763391	     -1.65205809	      1.41316560	     -3.56379944	     -0.20840058	     -5.29974581	      6.70361808	     -7.38541385	      9.01880973	      8.42378907	    -11.67952497	      8.02926511	    -10.21680030	      1.86500016	     -6.89327283	      3.64410504	     -4.82012015
      0.51233333	     -5.82135820	      4.05200433	     -2.56958872	     -0.75527034	      0.99555546	      0.30463092	     25.37325940	     -1.42698289	      1.81895729	     -4.01540878	     -0.62281708	     -5.66237265	      6.78441014	     -7.44353033	      8.91109756	      8.13494157	    -12.23558525	      7.98136424	     -9.98401431	      2.17168310	     -6.87192819	      3.75742291	     -4.63300776
      0.51650000	     -5.82197039	      3.94852066	     -2.66649183	     -0.74948756	      0.99506947	      0.30519280	     25.35772351	     -1.21316248	      2.19530826	     -4.53096081	     -1.05942495	     -6.10424950	      6.88218901	     -7.47085961	      8.81293714	      7.81293641	    -12.87444496	      7.93842608	     -9.72432606	      2.59583617	     -6.83545118	      3.88305081	     -4.41841964
      0.52066667	     -5.81389733	      3.81681477	     -2.77069511	     -0.74367474	      0.99462100	      0.30576030	     25.35132410	     -0.97193792	      2.51762732	     -5.12273404	     -1.43119615	     -6.45498117	      7.93205249	     -7.47957114	      8.68443683	      7.46266002	    -13.55450132	      7.74726548	     -9.54034808	      7.33900474	     -6.81721295	      4.05848455	     -4.31326803
      0.52483333	     -5.82353176	      3.71130028	     -2.89007984	     -0.73787297	      0.99416507	      0.30634346	     25.38190705	     -0.74710204	      2.87904293	     -5.76706158	     -1.82024862	     -6.90817537	      7.93542563	     -7.44606135	      8.59476066	      7.15377084	    -14.27908782	      7.59233564	     -9.39914479	      7.41279622	     -6.78295590	      4.17039225	     -4.06593560
      0.52900000	     -5.79778561	      3.58597585	     -3.02753233	     -0.73203872	      0.99378565	      0.30692162	     25.39213058	     -0.50250206	      3.20614823	     -6.47858838	     -2.07789949	     -7.24416327	      7.93714054	     -7.42386012	      8.48879055	      6.79814319	    -15.04806254	      7.35163772	     -9.29386536	      7.49772714	     -6.77591860	      4.35711794	     -3.93133548
      0.53316667	     -5.80062382	      3.45993814	     -3.12350747	     -0.72625546	      0.99339112	      0.30752384	     25.42093356	     -0.26318249	      3.51133839	     -7.17499151	     -2.48185142	     -7.80945333	      7.93631660	     -7.29279457	      8.36286902	      6.38278001	    -15.97617642	      7.24637145	     -8.93889703	      7.75737200	     -6.76566302	      4.46793747	     -3.66136631
      0.53733333	     -5.77073088	      3.31912232	     -3.24012533	     -0.72043432	      0.99307744	      0.30811397	     25.43492197	     -0.00766510	      3.77403941	     -7.93741832	     -2.76042317	     -8.27748756	      7.93494011	     -7.18081346	      8.22796924	      5.96371050	    -16.92055347	      7.01316985	     -8.66766542	      8.22890173	     -6.77841868	      4.65137859	     -3.45617052
      0.54150000	     -5.77264994	      3.18759855	     -3.35328800	     -0.71464326	      0.99273090	      0.30871557	     25.50296206	      0.24030124	      4.01910887	     -8.75492987	     -2.96222381	     -8.69365541	      7.92464813	     -6.98439421	      8.09679578	      5.52490488	    -17.95214759	      6.73996699	     -8.39929749	      8.86616275	     -6.77014617	      4.79779897	     -3.25748455
      0.54566667	     -5.69949403	      3.04424629	     -3.47166837	     -0.70884626	      0.99251283	      0.30932243	     25.47410533	      0.49520231	      4.26176489	     -9.55352391	     -3.05316480	     -9.09248778	      7.77023818	     -6.83500448	      7.95195890	      5.05846593	    -19.03026605	      6.24474320	     -8.31200621	     14.45262414	     -6.84070162	      4.97802518	     -3.16692325
      0.54983333	     -5.70482699	      2.91844682	     -3.57038652	     -0.70306876	      0.99221379	      0.30988600	     25.56363958	      0.72518390	      4.41400729	    -10.43333262	     -3.08754315	     -9.35103945	      7.75798295	     -6.54903313	      7.81563128	      4.58898665	    -20.20666442	      5.83242491	     -8.04786590	     14.56724682	     -6.82017641	      5.13080197	     -2.97821693
      0.55400000	     -5.65285138	      2.78514683	     -3.67072279	     -0.69731599	      0.99202244	      0.31047110	     25.58098882	      0.96059342	      4.57164061	    -11.30064874	     -3.06510771	     -9.65257126	      7.73385628	     -6.27938041	      7.66367558	      4.08716221	    -21.45456211	      5.38783700	     -7.75686791	     14.79914388	     -6.87259399	      5.28449027	     -2.81075191
      0.55816667	     -5.61728126	      2.63835924	     -3.75953555	     -0.69157710	      0.99182416	      0.31106237	     25.61347435	      1.20700920	      4.69982573	    -12.17802325	     -2.96539173	     -9.92337055	      7.69519221	     -5.94234884	      7.48101875	      3.55846491	    -22.78859081	      4.87043667	     -7.43513235	     15.17046710	     -6.91388645	      5.45388342	     -2.65521792
      0.56233333	     -5.54751080	      2.47094066	     -3.83678945	     -0.68583014	      0.99172814	      0.31166825	     25.57386834	      1.46934815	      4.83899601	    -12.99883040	     -2.80154803	    -10.25145295	      7.10713773	     -5.61209957	      7.26030905	      3.01495183	    -24.15448204	      4.18692919	     -7.22756556	     20.19247336	     -6.99151370	      5.65060043	     -2.53349060
      0.56650000	     -5.48122689	      2.33330221	     -3.90832778	     -0.68012250	      0.99163635	      0.31222442	     25.56866716	      1.68621145	      4.88269537	    -13.88052675	     -2.52607873	    -10.32718536	      7.09659810	     -5.23176692	      7.06500098	      2.47448174	    -25.59598909	      3.47630435	     -6.92263604	     20.28598531	     -7.06174176	      5.80948524	     -2.42787109
      0.57066667	     -5.43169531	      2.17519162	     -3.96258527	     -0.67443491	      0.99155339	      0.31278870	     25.56110682	      1.92106870	      4.91882649	    -14.73410083	     -2.21718694	    -10.46693895	      7.06973055	     -4.79371522	      6.82766852	      1.93320564	    -27.10038963	      2.76003011	     -6.57364195	     20.48880806	     -7.12266279	      5.99118813	     -2.30336640
      0.57483333	     -5.32692604	      1.98704845	     -4.01035061	     -0.66874317	      0.99159376	      0.31339511	     25.45489209	      2.18129983	      4.95948626	    -15.51884244	     -1.86805403	    -10.61170470	      6.44108655	     -4.38964057	      6.53203656	      1.35249867	    -28.62617883	      1.86499182	     -6.21451270	     24.31526517	     -7.26662928	      6.18188189	     -2.14522407
